<svg width="72" height="72" viewBox="0 0 72 72" fill="none" xmlns="http://www.w3.org/2000/svg">
<g id="Group">
<path id="Vector" fill-rule="evenodd" clip-rule="evenodd" d="M72 72H0C0 72 25.2229 69.1084 29.5482 61.1154C33.5163 53.78 32.5895 41.29 32.5074 41.203C32.4591 41.1546 32.4157 41.1063 32.3722 41.0579C32.2322 40.908 32.0971 40.763 31.9474 40.6324C31.5081 40.2456 31.1413 39.7282 30.8034 39.2446C30.5089 38.8288 30.3158 38.3259 30.0068 37.9004C29.7172 37.5039 29.3696 37.1605 29.1089 36.7253C29.0172 36.5754 28.8676 36.4352 28.829 36.2515C28.8821 36.1983 28.9352 36.1548 28.9883 36.1209C29.2586 35.9323 29.5289 35.9323 29.78 36.0339C30.1951 36.1983 30.562 36.6335 30.7889 36.9188L30.7937 36.9236C30.8323 36.972 30.8661 37.03 30.8999 37.088C31.0158 37.2863 31.122 37.4942 31.3488 37.499C31.6192 37.2379 31.6385 36.6238 31.5468 36.0387C31.5323 35.942 31.513 35.8453 31.4937 35.7486C31.4068 35.3521 31.1751 34.8444 30.9385 34.356C30.8275 34.119 30.7116 33.8869 30.6103 33.6742C30.5475 33.5436 30.4123 33.2583 30.2868 32.9343C30.0648 32.3589 29.8958 31.6626 30.311 31.5321C30.6827 31.4112 30.8854 31.8077 31.0737 32.1365C31.4985 32.8812 31.7157 33.4614 32.0488 34.1529C32.1067 34.2738 32.1743 34.4333 32.2516 34.5832C32.3771 34.8298 32.5171 35.0523 32.6426 35.0233C32.8115 34.9894 32.7874 34.443 32.7584 33.974C32.7488 33.8676 32.7439 33.766 32.7343 33.6742C32.6957 33.1616 32.6426 32.6345 32.6088 32.1558C32.5605 31.5224 32.2612 30.2217 32.9274 30.1878C33.2943 30.1685 33.4053 30.3909 33.5018 30.9035C33.6805 31.827 33.748 32.9634 33.888 33.8386C33.9556 34.2496 34.0425 34.9072 34.308 34.9266C34.5783 34.9459 34.6604 34.3801 34.7473 34.032C34.839 33.6645 34.9356 33.2583 35.008 32.8618C35.0997 32.3638 35.1045 30.7149 35.7514 30.7487C36.2148 30.7681 36.1376 31.4644 36.1134 31.7448C36.07 32.209 36.0072 32.6249 35.9541 32.9489C35.9107 33.2438 35.8431 33.6113 35.7852 33.9691C35.6838 34.6364 35.6259 35.2699 35.8335 35.3376C36.0024 35.3956 36.2148 35.1442 36.4224 34.8153C36.601 34.5252 36.7748 34.1771 36.9051 33.9256C37.1706 33.4276 37.6003 32.3976 38.0975 32.6974C38.1554 32.7361 38.194 32.7941 38.2037 32.8666C38.2616 33.1858 37.9527 33.8144 37.6147 34.4817C37.3637 34.9797 37.0934 35.502 36.9486 35.9275C36.9486 35.9323 36.9437 35.942 36.9437 35.9468C36.7313 36.5803 36.77 37.3975 36.7024 38.1857C36.6976 38.2582 36.6879 38.3307 36.6831 38.3984C36.6589 38.6015 36.6396 38.8481 36.6155 39.1044C36.5672 39.6024 36.4996 40.1537 36.3596 40.5454C36.3065 40.6953 36.2245 40.8161 36.1376 40.908C36.1328 40.9129 36.1328 40.9467 36.1376 40.9999C36.181 41.4012 35.679 55.0566 40.0719 63.4751C43.5427 70.1384 72 72 72 72Z" fill="#3D3D3D"/>
<g id="Group_2">
<g id="Group_3">
<path id="Vector_2" d="M33.1253 23.1328C33.2653 23.2682 33.3715 23.4084 33.4729 23.5438C33.5694 23.6792 33.6611 23.8194 33.7384 23.9548C33.8928 24.2305 34.0135 24.5061 34.1101 24.7817C34.2983 25.3329 34.3756 25.8794 34.3804 26.4306C34.3804 26.9818 34.3032 27.5282 34.1149 28.0795C34.0232 28.3551 33.9025 28.6307 33.7432 28.9063C33.6659 29.0417 33.5791 29.182 33.4777 29.3174C33.3763 29.4528 33.2701 29.593 33.1301 29.7284C32.9901 29.593 32.8791 29.4528 32.7825 29.3174C32.6812 29.182 32.5943 29.0417 32.517 28.9063C32.3626 28.6307 32.2419 28.3551 32.1453 28.0795C31.9571 27.5282 31.8798 26.9818 31.8798 26.4306C31.8798 25.8794 31.9619 25.3329 32.1502 24.7817C32.2419 24.5061 32.3626 24.2305 32.5219 23.9548C32.5991 23.8194 32.686 23.6792 32.7874 23.5438C32.8791 23.4084 32.9853 23.273 33.1253 23.1328Z" fill="#1C442A"/>
<path id="Vector_3" d="M33.1253 15.604C33.2653 15.7394 33.3715 15.8796 33.4729 16.015C33.5694 16.1504 33.6611 16.2906 33.7384 16.426C33.8928 16.7017 34.0135 16.9773 34.1101 17.2529C34.2983 17.8041 34.3756 18.3505 34.3804 18.9018C34.3804 19.453 34.3032 19.9994 34.1149 20.5507C34.0232 20.8263 33.9025 21.1019 33.7432 21.3775C33.6659 21.5129 33.5791 21.6532 33.4777 21.7886C33.3763 21.9239 33.2701 22.0642 33.1301 22.1996C32.9901 22.0642 32.8791 21.9239 32.7825 21.7886C32.6812 21.6532 32.5943 21.5129 32.517 21.3775C32.3626 21.1019 32.2419 20.8263 32.1453 20.5507C31.9571 19.9994 31.8798 19.453 31.8798 18.9018C31.8798 18.3505 31.9619 17.8041 32.1502 17.2529C32.2419 16.9773 32.3626 16.7017 32.5219 16.426C32.5991 16.2906 32.686 16.1504 32.7874 16.015C32.8791 15.8748 32.9853 15.7394 33.1253 15.604Z" fill="#009444"/>
<path id="Vector_4" d="M38.556 25.1831C38.3629 25.1976 38.1891 25.2315 38.025 25.2701C37.8609 25.3088 37.7064 25.3572 37.5567 25.4104C37.2623 25.5168 36.9871 25.6473 36.7409 25.7972C36.2437 26.0922 35.8237 26.4597 35.4617 26.8755C35.1044 27.2914 34.8051 27.7604 34.5927 28.302C34.4865 28.5728 34.3996 28.8581 34.3369 29.1675C34.3079 29.3223 34.2838 29.4867 34.2693 29.6559C34.2548 29.8252 34.25 29.9992 34.2645 30.1975C34.4624 30.183 34.6314 30.1491 34.8003 30.1104C34.9644 30.0718 35.1189 30.0234 35.2686 29.9702C35.5679 29.8638 35.8382 29.7333 36.0844 29.5882C36.5816 29.2933 37.0016 28.9258 37.3588 28.5099C37.716 28.0892 38.0105 27.6202 38.2277 27.0834C38.3339 26.8127 38.4208 26.5274 38.4836 26.2179C38.5126 26.0632 38.5367 25.9036 38.5512 25.7343C38.5608 25.5554 38.5705 25.3765 38.556 25.1831Z" fill="#1C442A"/>
<path id="Vector_5" d="M51.2133 20.4782C51.025 20.4347 50.8464 20.4202 50.6774 20.4057C50.5085 20.396 50.3443 20.396 50.1899 20.4057C49.8761 20.425 49.5768 20.4686 49.2968 20.5411C48.732 20.6813 48.23 20.9086 47.7665 21.2035C47.3031 21.4985 46.8831 21.866 46.5211 22.3205C46.3425 22.5478 46.1735 22.7992 46.0287 23.0797C45.9563 23.2199 45.8887 23.3698 45.8259 23.5246C45.7632 23.6841 45.7101 23.8485 45.6666 24.042C45.8597 24.0855 46.0335 24.1048 46.2025 24.1145C46.3714 24.1242 46.5356 24.1242 46.69 24.1145C47.0038 24.0951 47.3031 24.0516 47.5831 23.9791C48.1479 23.8389 48.6499 23.6116 49.1134 23.3118C49.5768 23.012 49.9919 22.6493 50.354 22.1948C50.5326 21.9675 50.7016 21.7161 50.8464 21.4356C50.9188 21.2954 50.9864 21.1455 51.0491 20.9908C51.1167 20.836 51.1747 20.6716 51.2133 20.4782Z" fill="#D4BE29"/>
<path id="Vector_6" d="M42.9682 18.9019C42.7751 18.9164 42.6014 18.9502 42.4372 18.9889C42.2731 19.0276 42.1186 19.0759 41.969 19.1291C41.6745 19.2355 41.3994 19.3661 41.1532 19.516C40.6559 19.8109 40.236 20.1784 39.8787 20.5943C39.5215 21.0101 39.2222 21.4792 39.0098 22.0207C38.9036 22.2915 38.8167 22.5768 38.754 22.8911C38.725 23.0458 38.7009 23.2102 38.6864 23.3795C38.6719 23.5487 38.6671 23.7228 38.6864 23.9211C38.8843 23.9066 39.0533 23.8727 39.2222 23.834C39.3863 23.7953 39.5408 23.747 39.6905 23.6938C39.9898 23.5874 40.2601 23.4569 40.5063 23.307C41.0035 23.012 41.4235 22.6445 41.7807 22.2286C42.1379 21.808 42.4324 21.3389 42.6496 20.8022C42.7558 20.5314 42.8427 20.2461 42.9055 19.9366C42.9344 19.7819 42.9586 19.6223 42.9731 19.4531C42.9779 19.2742 42.9875 19.0953 42.9682 18.9019Z" fill="#009444"/>
<path id="Vector_7" d="M37.3202 18.9019C37.1464 18.9889 37.0016 19.0856 36.8616 19.1871C36.7264 19.2887 36.6009 19.3902 36.485 19.4966C36.2533 19.7094 36.0554 19.9366 35.8816 20.1687C35.5341 20.633 35.2879 21.131 35.1189 21.6581C34.9499 22.1803 34.8582 22.7315 34.8679 23.3118C34.8727 23.6019 34.9017 23.9017 34.9693 24.2112C35.003 24.3659 35.0417 24.5255 35.0948 24.6851C35.1479 24.8446 35.2106 25.009 35.3023 25.1831C35.4761 25.0961 35.6258 24.9994 35.7609 24.8978C35.8961 24.7963 36.0216 24.6947 36.1423 24.5884C36.374 24.3756 36.5768 24.1483 36.7457 23.9162C37.0933 23.452 37.3347 22.9491 37.5036 22.4269C37.6726 21.9047 37.7643 21.3534 37.7546 20.7732C37.7498 20.4831 37.7208 20.1833 37.6533 19.8738C37.6195 19.719 37.5809 19.5595 37.5278 19.3999C37.4747 19.2403 37.4119 19.0759 37.3202 18.9019Z" fill="#006838"/>
<path id="Vector_8" d="M41.3799 13.9697C41.1965 14.0374 41.042 14.1196 40.8924 14.2018C40.7475 14.284 40.6075 14.3759 40.482 14.4678C40.2262 14.6515 40.0041 14.8546 39.8062 15.0674C39.4104 15.4929 39.1111 15.9571 38.8794 16.46C38.6525 16.9629 38.498 17.4948 38.4401 18.0702C38.4111 18.3603 38.4063 18.6601 38.4352 18.9744C38.4497 19.134 38.4739 19.2936 38.5076 19.458C38.5414 19.6272 38.5849 19.7965 38.6573 19.9802C38.8407 19.9125 38.9952 19.8351 39.1449 19.7481C39.2897 19.6659 39.4297 19.574 39.5552 19.4822C39.811 19.2984 40.0331 19.0953 40.231 18.8826C40.6269 18.457 40.9262 17.9928 41.153 17.4899C41.3799 16.9871 41.5296 16.4552 41.5875 15.8749C41.6165 15.5848 41.6213 15.285 41.5923 14.9707C41.5778 14.8111 41.5537 14.6515 41.5199 14.4871C41.491 14.3227 41.4475 14.1535 41.3799 13.9697Z" fill="#D4BE29"/>
<path id="Vector_9" d="M36.8036 11.6389C36.6394 11.7405 36.4994 11.8517 36.3739 11.9629C36.2484 12.0741 36.1325 12.1902 36.0263 12.3062C35.8139 12.5383 35.6353 12.7801 35.4809 13.0267C35.1767 13.5199 34.9788 14.0421 34.8533 14.574C34.7326 15.1108 34.6892 15.662 34.7471 16.2423C34.7761 16.5324 34.834 16.8274 34.9257 17.1272C34.974 17.2771 35.0271 17.4318 35.0947 17.5865C35.1623 17.7413 35.2395 17.9008 35.3457 18.0652C35.5146 17.9637 35.6498 17.8525 35.7802 17.7413C35.9057 17.6301 36.0215 17.514 36.1326 17.398C36.345 17.1659 36.5236 16.9241 36.678 16.6775C36.9822 16.1843 37.1801 15.662 37.3008 15.1253C37.4215 14.5885 37.4649 14.0325 37.4021 13.4571C37.3732 13.1669 37.3153 12.872 37.2235 12.5722C37.1801 12.4223 37.1222 12.2675 37.0594 12.1128C36.9822 11.9629 36.9049 11.8033 36.8036 11.6389Z" fill="#D4BE29"/>
<path id="Vector_10" d="M48.9686 25.3039C48.79 25.2217 48.6259 25.1637 48.4618 25.1153C48.2976 25.067 48.1383 25.0331 47.9839 25.009C47.6749 24.9558 47.3756 24.9364 47.0811 24.9413C46.5019 24.9558 45.9564 25.067 45.4398 25.2507C44.9233 25.4393 44.4358 25.7004 43.982 26.0631C43.7551 26.2468 43.5379 26.4548 43.3351 26.6965C43.2337 26.8174 43.1324 26.948 43.0407 27.0882C42.9441 27.2284 42.8524 27.3783 42.7751 27.5573C42.9538 27.6443 43.1179 27.6975 43.282 27.7458C43.4461 27.7942 43.6055 27.828 43.7599 27.8522C44.0689 27.9054 44.373 27.9247 44.6626 27.9199C45.2419 27.9054 45.7874 27.7942 46.2991 27.6056C46.8156 27.417 47.3032 27.1511 47.757 26.7884C47.9839 26.6047 48.2011 26.3967 48.4038 26.1598C48.5052 26.0389 48.6066 25.9084 48.6983 25.7681C48.7997 25.6279 48.8914 25.478 48.9686 25.3039Z" fill="#009444"/>
<path id="Vector_11" d="M44.426 23.244C44.2329 23.2102 44.0591 23.2053 43.8902 23.2053C43.7212 23.2053 43.5571 23.215 43.4026 23.2343C43.0888 23.2682 42.7944 23.331 42.5192 23.4181C41.9641 23.5922 41.4717 23.8484 41.0276 24.1676C40.5834 24.4916 40.1876 24.8784 39.8497 25.3523C39.6807 25.5892 39.5311 25.8503 39.4007 26.1356C39.338 26.2807 39.2752 26.4306 39.2221 26.595C39.169 26.7594 39.1256 26.9286 39.0966 27.1221C39.2897 27.1559 39.4635 27.1607 39.6373 27.1656C39.8062 27.1656 39.9704 27.1559 40.1248 27.1366C40.4386 27.1027 40.7331 27.0399 41.0083 26.9528C41.5634 26.7787 42.051 26.5225 42.4951 26.1985C42.9392 25.8745 43.335 25.4828 43.6681 25.009C43.8371 24.772 43.9867 24.5109 44.1171 24.2256C44.1847 24.0805 44.2426 23.9306 44.2957 23.7711C44.3488 23.6067 44.3971 23.4374 44.426 23.244Z" fill="#006838"/>
<path id="Vector_12" d="M47.6941 17.1321C47.501 17.1418 47.3273 17.1708 47.1583 17.2094C46.9942 17.2481 46.8349 17.2917 46.6852 17.34C46.3859 17.4416 46.1156 17.5673 45.8597 17.7075C45.3577 17.9928 44.9281 18.3506 44.5612 18.7616C44.1943 19.1726 43.8902 19.6368 43.6633 20.1687C43.5523 20.4347 43.4606 20.7248 43.393 21.0295C43.3592 21.1842 43.335 21.3438 43.3157 21.513C43.3012 21.6822 43.2916 21.8563 43.3012 22.0546C43.4992 22.0449 43.6681 22.0159 43.8371 21.9772C44.0012 21.9385 44.1605 21.895 44.3102 21.8467C44.6095 21.7451 44.8846 21.6194 45.1356 21.4792C45.6377 21.1939 46.0625 20.836 46.4294 20.425C46.7914 20.014 47.0955 19.5498 47.3224 19.0131C47.4335 18.7471 47.5252 18.457 47.5928 18.1524C47.6266 17.9976 47.6507 17.8381 47.67 17.6688C47.699 17.4996 47.7086 17.3255 47.6941 17.1321Z" fill="#D4BE29"/>
<path id="Vector_13" d="M46.7044 12.5577C46.5113 12.5867 46.3423 12.635 46.183 12.6931C46.0237 12.7463 45.8741 12.8091 45.7292 12.8768C45.4444 13.0122 45.1838 13.1621 44.9472 13.3314C44.4741 13.6698 44.0928 14.0712 43.7693 14.516C43.4507 14.9609 43.1949 15.459 43.0259 16.015C42.9439 16.2955 42.8811 16.5856 42.8473 16.8999C42.8328 17.0595 42.8232 17.2191 42.8232 17.3883C42.8232 17.5575 42.8328 17.7365 42.8666 17.9299C43.0597 17.9009 43.2287 17.8525 43.3928 17.7993C43.5521 17.7461 43.7066 17.6833 43.8466 17.6204C44.1314 17.485 44.3921 17.3351 44.6286 17.1659C45.0969 16.8274 45.483 16.426 45.8017 15.9763C46.1203 15.5266 46.3713 15.0334 46.5402 14.4774C46.6223 14.1969 46.6851 13.9068 46.7188 13.5925C46.7333 13.4329 46.743 13.2733 46.743 13.1041C46.743 12.9252 46.7382 12.7511 46.7044 12.5577Z" fill="#F9ED32"/>
<path id="Vector_14" d="M41.5585 8.48145C41.3751 8.54431 41.2158 8.62167 41.0661 8.70388C40.9165 8.78608 40.7813 8.86828 40.651 8.96016C40.3903 9.13907 40.1634 9.33732 39.9607 9.54041C39.5552 9.95626 39.2414 10.4156 39.0049 10.9088C38.7683 11.4021 38.5994 11.934 38.527 12.5094C38.4932 12.7995 38.4835 13.0993 38.5028 13.4136C38.5125 13.5732 38.5318 13.7328 38.5656 13.902C38.5945 14.0712 38.638 14.2405 38.7007 14.4242C38.8842 14.3614 39.0435 14.284 39.1931 14.2066C39.3428 14.1244 39.4828 14.0422 39.6131 13.9504C39.8738 13.7714 40.1007 13.5732 40.3034 13.3701C40.7089 12.9542 41.0179 12.4949 41.2592 11.9968C41.4958 11.4988 41.6599 10.9717 41.7323 10.3915C41.7661 10.1013 41.7758 9.80153 41.7564 9.48722C41.7468 9.32765 41.7275 9.16808 41.6985 8.99884C41.6599 8.83443 41.6213 8.66519 41.5585 8.48145Z" fill="#F9ED32"/>
<path id="Vector_15" d="M33.352 8.00262C33.2023 8.12835 33.0865 8.2589 32.9754 8.38946C32.8692 8.52002 32.7679 8.65058 32.681 8.78113C32.5072 9.04225 32.3672 9.3082 32.2513 9.57899C32.0244 10.1157 31.9038 10.6573 31.8651 11.2037C31.8265 11.7501 31.8651 12.3062 32.01 12.8671C32.0824 13.1476 32.1837 13.4328 32.3189 13.7181C32.3865 13.8632 32.4637 14.0034 32.5554 14.1485C32.6472 14.2936 32.7437 14.4386 32.8741 14.5837C33.0237 14.458 33.1444 14.3274 33.2554 14.1969C33.3664 14.0663 33.463 13.9357 33.5499 13.8052C33.7237 13.5441 33.8685 13.2781 33.9795 13.0073C34.2064 12.4706 34.3271 11.929 34.3657 11.3826C34.4043 10.8362 34.3609 10.2801 34.2161 9.71921C34.1436 9.43876 34.0423 9.15346 33.9071 8.86817C33.8395 8.72311 33.7623 8.58288 33.6754 8.43782C33.5788 8.29275 33.4823 8.14769 33.352 8.00262Z" fill="#F9ED32"/>
<path id="Vector_16" d="M33.352 0C33.2023 0.125722 33.0865 0.256279 32.9754 0.386837C32.8692 0.517394 32.7679 0.647952 32.681 0.778509C32.5072 1.03962 32.3672 1.30557 32.2513 1.57636C32.0244 2.1131 31.9038 2.65467 31.8651 3.20107C31.8265 3.74748 31.8651 4.30356 32.01 4.86447C32.0824 5.14493 32.1837 5.43022 32.3189 5.71551C32.3865 5.86058 32.4637 6.00081 32.5554 6.14587C32.6472 6.29093 32.7437 6.436 32.8741 6.58106C33.0237 6.45534 33.1444 6.32478 33.2554 6.19422C33.3664 6.06367 33.463 5.93311 33.5499 5.80255C33.7237 5.54144 33.8685 5.27549 33.9795 5.0047C34.2064 4.46797 34.3271 3.92639 34.3657 3.37999C34.4043 2.83358 34.3609 2.2775 34.2161 1.71659C34.1436 1.43613 34.0423 1.15084 33.9071 0.865547C33.8395 0.720484 33.7623 0.580255 33.6754 0.435191C33.5788 0.290128 33.4823 0.145064 33.352 0Z" fill="#F9ED32"/>
<path id="Vector_17" d="M53.2022 15.3429C53.0091 15.3284 52.8305 15.338 52.6615 15.3525C52.4926 15.367 52.3333 15.3961 52.1788 15.4251C51.8698 15.4879 51.585 15.5798 51.3147 15.691C50.7789 15.9135 50.3154 16.2181 49.9003 16.5759C49.4851 16.9386 49.1279 17.3641 48.8383 17.867C48.6934 18.1184 48.5679 18.3892 48.4666 18.689C48.4135 18.8389 48.37 18.9936 48.3314 19.1629C48.2928 19.3273 48.2638 19.5014 48.2542 19.6996C48.4521 19.7141 48.6259 19.7045 48.7948 19.6899C48.9638 19.6754 49.1231 19.6513 49.2775 19.6174C49.5865 19.5546 49.8713 19.4627 50.1416 19.3515C50.6775 19.129 51.1409 18.8244 51.5561 18.4617C51.9664 18.0991 52.3284 17.6736 52.6132 17.1707C52.7581 16.9192 52.8836 16.6484 52.9898 16.3486C53.0429 16.1987 53.0863 16.044 53.1249 15.8796C53.1587 15.7104 53.1877 15.5363 53.2022 15.3429Z" fill="#F9ED32"/>
<path id="Vector_18" d="M55.9877 22.1125C55.8091 22.0303 55.6401 21.982 55.476 21.9385C55.3118 21.8949 55.1525 21.8659 54.9981 21.8417C54.6843 21.7982 54.385 21.7837 54.0954 21.7934C53.5161 21.8176 52.9754 21.9385 52.4637 22.1367C51.952 22.335 51.4693 22.6106 51.0252 22.9829C50.8031 23.1715 50.5907 23.3843 50.3928 23.626C50.2914 23.7469 50.1949 23.8823 50.1031 24.0225C50.0114 24.1676 49.9245 24.3175 49.8473 24.4964C50.0259 24.5786 50.1949 24.6318 50.359 24.6753C50.5231 24.7188 50.6824 24.7527 50.8369 24.772C51.1507 24.8204 51.45 24.8301 51.7396 24.8204C52.3189 24.7962 52.8596 24.6705 53.3713 24.4722C53.883 24.274 54.3657 23.9984 54.8098 23.626C55.0319 23.4374 55.2443 23.2247 55.4422 22.9829C55.5436 22.862 55.6401 22.7266 55.7318 22.5864C55.8235 22.4462 55.9104 22.2963 55.9877 22.1125Z" fill="#F9ED32"/>
<path id="Vector_19" d="M27.7428 25.1831C27.9359 25.1976 28.1097 25.2315 28.2738 25.2701C28.438 25.3088 28.5924 25.3572 28.7421 25.4104C29.0365 25.5168 29.3117 25.6473 29.5579 25.7972C30.0551 26.0922 30.4751 26.4597 30.8371 26.8755C31.1944 27.2914 31.4937 27.7604 31.7061 28.302C31.8123 28.5728 31.8992 28.8581 31.9619 29.1675C31.9909 29.3223 32.015 29.4867 32.0295 29.6559C32.044 29.8252 32.0488 29.9992 32.0343 30.1975C31.8364 30.183 31.6674 30.1491 31.4985 30.1104C31.3344 30.0718 31.1799 30.0234 31.0302 29.9702C30.7309 29.8638 30.4606 29.7333 30.2144 29.5882C29.7172 29.2933 29.2972 28.9258 28.94 28.5099C28.5828 28.0892 28.2883 27.6202 28.0711 27.0834C27.9649 26.8127 27.878 26.5274 27.8152 26.2179C27.7863 26.0632 27.7621 25.9036 27.7476 25.7343C27.7332 25.5554 27.7283 25.3765 27.7428 25.1831Z" fill="#1C442A"/>
<path id="Vector_20" d="M23.0456 33.1954C23.2049 33.0842 23.3594 33.002 23.5138 32.9295C23.6683 32.857 23.818 32.7989 23.9676 32.7457C24.2669 32.6442 24.5566 32.5765 24.8462 32.533C25.4207 32.4508 25.9758 32.475 26.5165 32.5765C27.0571 32.678 27.5785 32.857 28.0854 33.1422C28.3364 33.2873 28.5826 33.4566 28.8239 33.6596C28.9446 33.7612 29.0605 33.8724 29.1812 33.9981C29.297 34.1238 29.4129 34.2544 29.5191 34.4188C29.3598 34.53 29.2053 34.6122 29.0508 34.6848C28.8963 34.7573 28.7467 34.8201 28.5971 34.8685C28.2978 34.97 28.0081 35.0377 27.7185 35.0813C27.144 35.1635 26.5889 35.1393 26.0482 35.0377C25.5075 34.9362 24.9862 34.7525 24.4793 34.4672C24.2283 34.3221 23.9773 34.1529 23.7407 33.9498C23.62 33.8482 23.4994 33.737 23.3835 33.6113C23.2677 33.4904 23.1518 33.355 23.0456 33.1954Z" fill="#1C442A"/>
<path id="Vector_21" d="M15.0804 20.4782C15.2687 20.4347 15.4473 20.4202 15.6163 20.4057C15.7852 20.396 15.9494 20.396 16.1038 20.4057C16.4176 20.425 16.7169 20.4686 16.9969 20.5411C17.5617 20.6813 18.0637 20.9086 18.5272 21.2035C18.9906 21.4985 19.4106 21.866 19.7726 22.3205C19.9512 22.5478 20.1202 22.7992 20.265 23.0797C20.3374 23.2199 20.405 23.3698 20.4678 23.5246C20.5305 23.6841 20.5836 23.8485 20.6271 24.042C20.434 24.0855 20.2602 24.1048 20.0912 24.1145C19.9223 24.1242 19.7581 24.1242 19.5988 24.1145C19.2851 24.0951 18.9858 24.0516 18.7058 23.9791C18.141 23.8389 17.6389 23.6116 17.1755 23.3118C16.7121 23.012 16.2969 22.6493 15.9349 22.1948C15.7563 21.9675 15.5873 21.7161 15.4425 21.4356C15.3701 21.2954 15.3025 21.1455 15.2397 20.9908C15.177 20.836 15.1239 20.6716 15.0804 20.4782Z" fill="#D4BE29"/>
<path id="Vector_22" d="M11.8848 26.8949C12.0538 26.7934 12.2131 26.7208 12.3676 26.658C12.5269 26.5951 12.6765 26.5419 12.831 26.4984C13.1351 26.4114 13.4296 26.363 13.7192 26.3388C14.2985 26.2905 14.8488 26.3437 15.3847 26.4742C15.9157 26.6048 16.4322 26.8175 16.9198 27.127C17.166 27.2818 17.4025 27.4703 17.6294 27.6879C17.7452 27.7991 17.8563 27.9152 17.9673 28.0458C18.0783 28.1763 18.1845 28.3165 18.2811 28.4858C18.1121 28.5873 17.9528 28.6599 17.7983 28.7276C17.639 28.7904 17.4846 28.8436 17.3349 28.8871C17.0308 28.9742 16.7363 29.0225 16.4467 29.0515C15.8674 29.0999 15.3171 29.0467 14.7861 28.9113C14.2551 28.7759 13.7385 28.568 13.251 28.2537C13.0048 28.0989 12.7682 27.9152 12.5413 27.6976C12.4255 27.5864 12.3145 27.4703 12.2034 27.3398C12.0876 27.1996 11.9814 27.0642 11.8848 26.8949Z" fill="#D4BE29"/>
<path id="Vector_23" d="M23.3256 18.9019C23.5187 18.9164 23.6925 18.9502 23.8566 18.9889C24.0207 19.0276 24.1752 19.0759 24.3248 19.1291C24.6193 19.2355 24.8945 19.3661 25.1407 19.516C25.6379 19.8109 26.0579 20.1784 26.4151 20.5943C26.7723 21.0101 27.0716 21.4792 27.284 22.0207C27.3902 22.2915 27.4771 22.5768 27.5399 22.8911C27.5688 23.0458 27.593 23.2102 27.6074 23.3795C27.6219 23.5487 27.6268 23.7228 27.6074 23.9211C27.4095 23.9066 27.2406 23.8727 27.0716 23.834C26.9075 23.7953 26.753 23.747 26.6034 23.6938C26.3041 23.5874 26.0337 23.4569 25.7875 23.307C25.2903 23.012 24.8703 22.6445 24.5131 22.2286C24.1559 21.808 23.8614 21.3389 23.6442 20.8022C23.538 20.5314 23.4511 20.2461 23.3883 19.9366C23.3594 19.7819 23.3352 19.6223 23.3207 19.4531C23.3159 19.2742 23.3111 19.0953 23.3256 18.9019Z" fill="#009444"/>
<path id="Vector_24" d="M28.9738 18.9019C29.1476 18.9889 29.2924 19.0856 29.4324 19.1871C29.5676 19.2887 29.6931 19.3902 29.8089 19.4966C30.0406 19.7094 30.2386 19.9366 30.4123 20.1687C30.7599 20.633 31.0061 21.131 31.1751 21.6581C31.344 22.1803 31.4357 22.7315 31.4261 23.3118C31.4213 23.6019 31.3923 23.9017 31.3247 24.2112C31.2909 24.3659 31.2523 24.5255 31.1992 24.6851C31.1461 24.8446 31.0833 25.009 30.9916 25.1831C30.8178 25.0961 30.6682 24.9994 30.533 24.8978C30.3979 24.7963 30.2723 24.6947 30.1517 24.5884C29.9199 24.3756 29.7172 24.1483 29.5482 23.9162C29.2007 23.452 28.9593 22.9491 28.7904 22.4269C28.6214 21.9047 28.5297 21.3534 28.5393 20.7732C28.5442 20.4831 28.5731 20.1833 28.6407 19.8738C28.6745 19.719 28.7131 19.5595 28.7662 19.3999C28.8241 19.2403 28.8821 19.0759 28.9738 18.9019Z" fill="#006838"/>
<path id="Vector_25" d="M24.9186 13.9697C25.1021 14.0374 25.2565 14.1196 25.4062 14.2018C25.551 14.284 25.691 14.3759 25.8165 14.4678C26.0724 14.6515 26.2944 14.8546 26.4923 15.0674C26.8882 15.4929 27.1875 15.9571 27.4192 16.46C27.6461 16.9629 27.8006 17.4948 27.8585 18.0702C27.8875 18.3603 27.8923 18.6601 27.8633 18.9744C27.8488 19.134 27.8247 19.2936 27.7909 19.458C27.7571 19.6272 27.7137 19.7965 27.6413 19.9802C27.4578 19.9125 27.3033 19.8351 27.1537 19.7481C27.004 19.6659 26.8689 19.574 26.7434 19.4822C26.4875 19.2984 26.2655 19.0953 26.0675 18.8826C25.6717 18.457 25.3724 17.9928 25.1455 17.4899C24.9186 16.9871 24.769 16.4552 24.7111 15.8749C24.6821 15.5848 24.6773 15.285 24.7062 14.9707C24.7207 14.8111 24.7448 14.6515 24.7786 14.4871C24.8076 14.3227 24.8462 14.1535 24.9186 13.9697Z" fill="#D4BE29"/>
<path id="Vector_26" d="M29.4951 11.6389C29.6593 11.7405 29.7992 11.8517 29.9248 11.9629C30.0503 12.0741 30.1661 12.1902 30.2723 12.3062C30.4847 12.5383 30.6633 12.7801 30.8178 13.0267C31.1219 13.5199 31.3199 14.0421 31.4454 14.574C31.5661 15.1108 31.6095 15.662 31.5516 16.2423C31.5226 16.5324 31.4647 16.8274 31.373 17.1272C31.3247 17.2771 31.2716 17.4318 31.204 17.5865C31.1364 17.7413 31.0592 17.9008 30.953 18.0652C30.784 17.9637 30.6489 17.8525 30.5185 17.7413C30.393 17.6301 30.2772 17.514 30.1661 17.398C29.9537 17.1659 29.7751 16.9241 29.6206 16.6775C29.3165 16.1843 29.1186 15.662 28.9979 15.1253C28.8772 14.5885 28.8338 14.0325 28.8965 13.4571C28.9255 13.1669 28.9834 12.872 29.0751 12.5722C29.1186 12.4223 29.1765 12.2675 29.2441 12.1128C29.3117 11.9629 29.3889 11.8033 29.4951 11.6389Z" fill="#D4BE29"/>
<path id="Vector_27" d="M17.3253 25.3039C17.5039 25.2217 17.6681 25.1637 17.8322 25.1153C17.9963 25.067 18.1556 25.0331 18.3101 25.009C18.619 24.9558 18.9183 24.9364 19.2128 24.9413C19.7921 24.9558 20.3376 25.067 20.8541 25.2507C21.3706 25.4393 21.8582 25.7004 22.312 26.0631C22.5389 26.2468 22.7561 26.4548 22.9588 26.6965C23.0602 26.8174 23.1616 26.948 23.2533 27.0882C23.3499 27.2284 23.4416 27.3783 23.5188 27.5573C23.3402 27.6443 23.1761 27.6975 23.0119 27.7458C22.8478 27.7942 22.6885 27.828 22.534 27.8522C22.2203 27.9054 21.921 27.9247 21.6313 27.9199C21.052 27.9054 20.5065 27.7942 19.9948 27.6056C19.4783 27.417 18.9908 27.1511 18.537 26.7884C18.3101 26.6047 18.0929 26.3967 17.8901 26.1598C17.7887 26.0389 17.6874 25.9084 17.5956 25.7681C17.4991 25.6279 17.4074 25.478 17.3253 25.3039Z" fill="#009444"/>
<path id="Vector_28" d="M21.8679 23.244C22.061 23.2102 22.2347 23.2053 22.4037 23.2053C22.5727 23.2053 22.7368 23.215 22.8913 23.2343C23.205 23.2682 23.4995 23.331 23.7747 23.4181C24.3298 23.5922 24.8222 23.8484 25.2663 24.1676C25.7104 24.4916 26.1063 24.8784 26.4442 25.3523C26.6132 25.5892 26.7628 25.8503 26.8931 26.1356C26.9559 26.2807 27.0187 26.4306 27.0718 26.595C27.1249 26.7594 27.1683 26.9286 27.1973 27.1221C27.0042 27.1559 26.8304 27.1607 26.6566 27.1656C26.4876 27.1656 26.3235 27.1559 26.169 27.1366C25.8553 27.1027 25.5608 27.0399 25.2856 26.9528C24.7305 26.7787 24.2429 26.5225 23.7988 26.1985C23.3547 25.8745 22.9588 25.4828 22.6258 25.009C22.4568 24.772 22.3071 24.5109 22.1768 24.2256C22.1092 24.0805 22.0513 23.9306 21.9982 23.7711C21.9451 23.6067 21.8968 23.4374 21.8679 23.244Z" fill="#006838"/>
<path id="Vector_29" d="M18.5996 17.1321C18.7927 17.1418 18.9665 17.1708 19.1354 17.2094C19.2996 17.2481 19.4589 17.2917 19.6085 17.34C19.9078 17.4416 20.1782 17.5673 20.434 17.7075C20.936 17.9928 21.3657 18.3506 21.7326 18.7616C22.0994 19.1726 22.4036 19.6368 22.6304 20.1687C22.7415 20.4347 22.8332 20.7248 22.9008 21.0295C22.9346 21.1842 22.9587 21.3438 22.978 21.513C22.9925 21.6822 23.0021 21.8563 22.9925 22.0546C22.7946 22.0449 22.6256 22.0159 22.4567 21.9772C22.2925 21.9385 22.1332 21.895 21.9836 21.8467C21.6843 21.7451 21.4091 21.6194 21.1581 21.4792C20.6561 21.1939 20.2313 20.836 19.8644 20.425C19.5023 20.014 19.1982 19.5498 18.9713 19.0131C18.8603 18.7471 18.7686 18.457 18.701 18.1524C18.6672 17.9976 18.6431 17.8381 18.6237 17.6688C18.5948 17.4996 18.5851 17.3255 18.5996 17.1321Z" fill="#D4BE29"/>
<path id="Vector_30" d="M19.5942 12.5577C19.7873 12.5867 19.9563 12.635 20.1156 12.6931C20.2749 12.7463 20.4245 12.8091 20.5694 12.8768C20.8542 13.0122 21.1148 13.1621 21.3514 13.3314C21.8245 13.6698 22.2058 14.0712 22.5293 14.516C22.8479 14.9609 23.1037 15.459 23.2727 16.015C23.3547 16.2955 23.4175 16.5856 23.4513 16.8999C23.4658 17.0595 23.4754 17.2191 23.4754 17.3883C23.4754 17.5575 23.4658 17.7365 23.432 17.9299C23.2389 17.9009 23.0699 17.8525 22.9058 17.7993C22.7465 17.7461 22.592 17.6833 22.452 17.6204C22.1672 17.485 21.9065 17.3351 21.67 17.1659C21.2017 16.8274 20.8156 16.426 20.4969 15.9763C20.1783 15.5266 19.9273 15.0334 19.7584 14.4774C19.6763 14.1969 19.6135 13.9068 19.5797 13.5925C19.5653 13.4329 19.5556 13.2733 19.5556 13.1041C19.5508 12.9252 19.5604 12.7511 19.5942 12.5577Z" fill="#F9ED32"/>
<path id="Vector_31" d="M24.7401 8.48145C24.9236 8.54431 25.0829 8.62167 25.2325 8.70388C25.3821 8.78608 25.5173 8.86828 25.6477 8.96016C25.9083 9.13907 26.1352 9.33732 26.338 9.54041C26.7435 9.95626 27.0572 10.4156 27.2938 10.9088C27.5303 11.4021 27.6993 11.934 27.7717 12.5094C27.8055 12.7995 27.8151 13.0993 27.7958 13.4136C27.7862 13.5732 27.7669 13.7328 27.7331 13.902C27.7041 14.0712 27.6607 14.2405 27.5979 14.4242C27.4145 14.3614 27.2552 14.284 27.1055 14.2066C26.9559 14.1244 26.8159 14.0422 26.6855 13.9504C26.4249 13.7714 26.198 13.5732 25.9952 13.3701C25.5897 12.9542 25.2808 12.4949 25.0394 11.9968C24.8029 11.4988 24.6387 10.9717 24.5663 10.3915C24.5325 10.1013 24.5229 9.80153 24.5422 9.48722C24.5518 9.32765 24.5712 9.16808 24.6001 8.99884C24.6339 8.83443 24.6725 8.66519 24.7401 8.48145Z" fill="#F9ED32"/>
<path id="Vector_32" d="M13.0966 15.3429C13.2897 15.3284 13.4683 15.338 13.6372 15.3525C13.8062 15.367 13.9655 15.3961 14.12 15.4251C14.4289 15.4879 14.7137 15.5798 14.9841 15.691C15.5199 15.9135 15.9833 16.2181 16.3985 16.5759C16.8136 16.9386 17.1708 17.3641 17.4605 17.867C17.6053 18.1184 17.7308 18.3892 17.8322 18.689C17.8853 18.8389 17.9287 18.9936 17.9674 19.1629C18.006 19.3273 18.0349 19.5014 18.0446 19.6996C17.8515 19.7141 17.6729 19.7045 17.5039 19.6899C17.335 19.6754 17.1757 19.6513 17.0212 19.6174C16.7122 19.5546 16.4274 19.4627 16.1571 19.3515C15.6213 19.129 15.1578 18.8244 14.7427 18.4617C14.3324 18.0991 13.9703 17.6736 13.6855 17.1707C13.5407 16.9192 13.4152 16.6484 13.309 16.3486C13.2559 16.1987 13.2124 16.044 13.1738 15.8796C13.14 15.7104 13.1062 15.5363 13.0966 15.3429Z" fill="#F9ED32"/>
<path id="Vector_33" d="M10.3063 22.1125C10.4849 22.0303 10.6539 21.982 10.818 21.9385C10.9822 21.8949 11.1415 21.8659 11.2959 21.8417C11.6097 21.7982 11.909 21.7837 12.1987 21.7934C12.7779 21.8176 13.3186 21.9385 13.8303 22.1367C14.342 22.335 14.8247 22.6106 15.2689 22.9829C15.4909 23.1715 15.7033 23.3843 15.9012 23.626C16.0026 23.7469 16.0992 23.8823 16.1909 24.0225C16.2826 24.1676 16.3695 24.3175 16.4467 24.4964C16.2681 24.5786 16.0992 24.6318 15.935 24.6753C15.7709 24.7188 15.6116 24.7527 15.4571 24.772C15.1433 24.8204 14.844 24.8301 14.5544 24.8204C13.9751 24.7962 13.4345 24.6705 12.9228 24.4722C12.4111 24.274 11.9283 23.9984 11.4842 23.626C11.2622 23.4374 11.0497 23.2247 10.8518 22.9829C10.7505 22.862 10.6539 22.7266 10.5622 22.5864C10.4705 22.4462 10.3836 22.2963 10.3063 22.1125Z" fill="#F9ED32"/>
<path id="Vector_34" d="M7.9411 16.8903C8.12937 16.8371 8.30315 16.8129 8.47211 16.7936C8.64107 16.7791 8.8052 16.7694 8.95967 16.7694C9.27345 16.7742 9.57275 16.8033 9.85756 16.8613C10.4272 16.9725 10.9437 17.1804 11.4168 17.456C11.8947 17.7317 12.3292 18.075 12.7105 18.5102C12.9036 18.7278 13.0774 18.9695 13.2367 19.2452C13.3139 19.3806 13.3912 19.5256 13.4588 19.6804C13.5264 19.8351 13.5891 19.9995 13.6422 20.1881C13.4539 20.2413 13.2802 20.2654 13.1112 20.2848C12.9422 20.3041 12.7781 20.309 12.6236 20.309C12.3099 20.3041 12.0106 20.2751 11.7257 20.2171C11.1561 20.101 10.6396 19.898 10.1665 19.6223C9.69343 19.3467 9.25897 18.9986 8.87761 18.5634C8.68451 18.3458 8.51073 18.104 8.35143 17.8284C8.26936 17.693 8.19695 17.5479 8.12937 17.3932C8.05213 17.2433 7.98937 17.0789 7.9411 16.8903Z" fill="#F9ED32"/>
<path id="Vector_35" d="M14.3951 10.4446C14.5882 10.464 14.762 10.5027 14.9261 10.551C15.0902 10.5945 15.2447 10.6477 15.3895 10.7058C15.684 10.8218 15.9495 10.962 16.1909 11.1168C16.6784 11.4311 17.0839 11.8082 17.4315 12.2386C17.7742 12.669 18.0542 13.1477 18.2521 13.6941C18.3487 13.9649 18.4259 14.2598 18.4742 14.5693C18.4983 14.724 18.5177 14.8884 18.5225 15.0577C18.5273 15.2269 18.5321 15.4058 18.508 15.5992C18.3149 15.5799 18.1411 15.5412 17.977 15.4977C17.8129 15.4542 17.6584 15.401 17.5136 15.343C17.2191 15.2269 16.9536 15.0867 16.7122 14.9319C16.2247 14.6176 15.8192 14.2405 15.4764 13.8101C15.1337 13.3798 14.8537 12.9011 14.6606 12.3546C14.564 12.0839 14.4868 11.7889 14.4337 11.4794C14.4096 11.3247 14.3903 11.1603 14.3854 10.991C14.371 10.8121 14.371 10.6381 14.3951 10.4446Z" fill="#F9ED32"/>
<path id="Vector_36" d="M19.8403 6.58112C20.0286 6.62947 20.1927 6.69233 20.3472 6.76003C20.5017 6.82772 20.6465 6.90509 20.7817 6.98246C21.0568 7.14203 21.2982 7.3161 21.5154 7.50469C21.9547 7.88669 22.3023 8.31704 22.5823 8.79092C22.8623 9.26479 23.0698 9.78219 23.1857 10.3479C23.2436 10.6332 23.2774 10.933 23.2822 11.2473C23.2822 11.4069 23.2774 11.5665 23.2629 11.7357C23.2436 11.905 23.2195 12.079 23.1712 12.2676C22.9829 12.2193 22.8188 12.1564 22.6595 12.0887C22.505 12.021 22.3602 11.9485 22.2202 11.8663C21.9451 11.7067 21.7037 11.5326 21.4865 11.344C21.0472 10.962 20.6996 10.5317 20.4244 10.053C20.1493 9.5791 19.9417 9.06171 19.8259 8.49112C19.7679 8.20583 19.7341 7.90603 19.7293 7.59173C19.7293 7.43216 19.7341 7.27259 19.7486 7.10334C19.7679 6.94377 19.7921 6.7697 19.8403 6.58112Z" fill="#F9ED32"/>
<path id="Vector_37" d="M28.3993 3.31714C28.5586 3.43319 28.6841 3.55408 28.8047 3.67496C28.9206 3.79585 29.0268 3.92157 29.1234 4.04729C29.3164 4.29874 29.4758 4.55018 29.6061 4.8113C29.8716 5.32869 30.0309 5.86059 30.1081 6.407C30.1902 6.95341 30.1854 7.50465 30.084 8.08007C30.0309 8.36536 29.9488 8.65549 29.8378 8.95045C29.7799 9.09552 29.7123 9.24541 29.6351 9.39531C29.553 9.54521 29.4661 9.69995 29.3502 9.85468C29.1909 9.73863 29.0654 9.61774 28.9447 9.49686C28.8289 9.37597 28.7179 9.25025 28.6213 9.12936C28.4282 8.87792 28.2689 8.62647 28.1337 8.36536C27.8682 7.84797 27.7138 7.31607 27.6317 6.76966C27.5545 6.22325 27.5545 5.66717 27.6607 5.09659C27.7138 4.8113 27.7958 4.52117 27.9069 4.22621C27.9648 4.08114 28.0324 3.93124 28.1096 3.78134C28.1917 3.62661 28.2834 3.47187 28.3993 3.31714Z" fill="#F9ED32"/>
<path id="Vector_38" d="M4.52313 24.4674C4.68726 24.3611 4.84657 24.2837 5.00104 24.216C5.15552 24.1483 5.30999 24.0951 5.45964 24.0468C5.76376 23.9549 6.0534 23.8969 6.34305 23.863C6.9175 23.8002 7.47265 23.8388 8.00848 23.9549C8.54432 24.0709 9.06567 24.2692 9.55806 24.5738C9.80426 24.7237 10.0456 24.9026 10.2822 25.1154C10.398 25.2218 10.5139 25.3378 10.6249 25.4635C10.7359 25.5941 10.847 25.7295 10.9532 25.8939C10.789 26.0003 10.6297 26.0777 10.4753 26.1454C10.3208 26.213 10.1663 26.2711 10.0167 26.3146C9.71254 26.4065 9.4229 26.4645 9.13326 26.4983C8.5588 26.5612 8.00366 26.5225 7.46782 26.4016C6.93198 26.2807 6.41546 26.0825 5.91824 25.7827C5.67204 25.6328 5.43068 25.4539 5.19413 25.2411C5.07828 25.1347 4.96242 25.0187 4.85139 24.893C4.74036 24.7672 4.62933 24.6319 4.52313 24.4674Z" fill="#F9ED32"/>
<path id="Vector_39" d="M54.3656 26.8949C54.1966 26.7934 54.0373 26.7208 53.8829 26.658C53.7236 26.5951 53.5739 26.5419 53.4194 26.4984C53.1153 26.4114 52.8209 26.363 52.5312 26.3388C51.9519 26.2905 51.4016 26.3437 50.8658 26.4742C50.3348 26.6048 49.8182 26.8175 49.3307 27.127C49.0845 27.2818 48.8479 27.4703 48.6211 27.6879C48.5052 27.7991 48.3942 27.9152 48.2831 28.0458C48.1721 28.1763 48.0659 28.3165 47.9694 28.4858C48.1383 28.5873 48.2976 28.6599 48.4521 28.7276C48.6114 28.7904 48.7659 28.8436 48.9155 28.8871C49.2196 28.9742 49.5141 29.0225 49.8038 29.0515C50.383 29.0999 50.9334 29.0467 51.4644 28.9113C51.9954 28.7759 52.5119 28.568 52.9995 28.2537C53.2457 28.0989 53.4822 27.9152 53.7091 27.6976C53.8249 27.5864 53.936 27.4703 54.047 27.3398C54.158 27.1996 54.2691 27.0642 54.3656 26.8949Z" fill="#D4BE29"/>
<path id="Vector_40" d="M54.66 33.8772C54.5345 33.7273 54.4042 33.6112 54.2738 33.5C54.1435 33.3936 54.0131 33.2921 53.8828 33.2051C53.6221 33.031 53.3566 32.8907 53.0863 32.7747C52.5504 32.5474 52.0098 32.4265 51.4643 32.3879C50.9188 32.3492 50.3637 32.3879 49.8037 32.5329C49.5237 32.6055 49.2389 32.707 48.9541 32.8424C48.8092 32.9101 48.6692 32.9875 48.5244 33.0793C48.3796 33.1712 48.2348 33.2679 48.09 33.3985C48.2155 33.5484 48.3458 33.6693 48.4762 33.7756C48.6065 33.8869 48.7368 33.9836 48.8672 34.0706C49.1278 34.2447 49.3934 34.3897 49.6637 34.501C50.1995 34.7282 50.7402 34.8443 51.2857 34.8878C51.8312 34.9265 52.3863 34.883 52.9463 34.7379C53.2263 34.6654 53.5111 34.5638 53.7959 34.4284C53.9407 34.3607 54.0807 34.2834 54.2255 34.1963C54.3704 34.1045 54.5152 34.0077 54.66 33.8772Z" fill="#D4BE29"/>
<path id="Vector_41" d="M50.4506 30.9276C50.3058 30.7971 50.161 30.6955 50.0162 30.6036C49.8714 30.5118 49.7314 30.4344 49.5866 30.3667C49.3017 30.2265 49.0218 30.1249 48.7418 30.0476C48.1818 29.8977 47.6266 29.8493 47.0812 29.8832C46.5308 29.917 45.9902 30.0331 45.4543 30.2555C45.184 30.3667 44.9185 30.5069 44.6578 30.6762C44.5275 30.7632 44.3923 30.8599 44.262 30.9663C44.1317 31.0775 44.0013 31.1936 43.871 31.3435C44.0158 31.474 44.1606 31.5756 44.3054 31.6674C44.4503 31.7593 44.5902 31.8367 44.7351 31.9044C45.0199 32.0446 45.2999 32.1461 45.5799 32.2235C46.1398 32.3734 46.695 32.4218 47.2405 32.3831C47.7908 32.3444 48.3314 32.2284 48.8673 32.0108C49.1376 31.8995 49.4031 31.7593 49.6638 31.5901C49.7941 31.503 49.9293 31.4063 50.0596 31.2999C50.1948 31.1887 50.3251 31.0727 50.4506 30.9276Z" fill="#009444"/>
<path id="Vector_42" d="M49.9921 36.5029C49.8811 36.3434 49.7652 36.2128 49.6446 36.0871C49.5287 35.9662 49.408 35.855 49.2825 35.7534C49.0411 35.5504 48.7901 35.386 48.5343 35.2457C48.0274 34.9653 47.5012 34.7912 46.9605 34.6945C46.4199 34.5978 45.8647 34.5833 45.2903 34.6703C45.0055 34.7138 44.711 34.7864 44.4165 34.8927C44.2669 34.9459 44.1172 35.0088 43.9628 35.0813C43.8083 35.1587 43.6538 35.2409 43.4945 35.3569C43.6055 35.5165 43.7214 35.6519 43.8372 35.7728C43.9531 35.8937 44.0738 36.0049 44.1945 36.1064C44.4358 36.3095 44.6869 36.4739 44.9427 36.6142C45.4496 36.8946 45.9758 37.0687 46.5213 37.1606C47.0619 37.2524 47.6171 37.2718 48.1915 37.1799C48.4763 37.1364 48.7708 37.0639 49.0653 36.9575C49.2149 36.9043 49.3646 36.8414 49.5191 36.7689C49.6784 36.7012 49.8328 36.619 49.9921 36.5029Z" fill="#009444"/>
<path id="Vector_43" d="M58.3095 16.8903C58.1212 16.8371 57.9475 16.8129 57.7785 16.7936C57.6095 16.7791 57.4454 16.7694 57.2909 16.7694C56.9772 16.7742 56.6779 16.8033 56.393 16.8613C55.8234 16.9725 55.3069 17.1804 54.8338 17.456C54.3559 17.7317 53.9214 18.075 53.5401 18.5102C53.347 18.7278 53.1732 18.9695 53.0139 19.2452C52.9367 19.3806 52.8594 19.5256 52.7918 19.6804C52.7243 19.8351 52.6615 19.9995 52.6084 20.1881C52.7967 20.2413 52.9705 20.2654 53.1394 20.2848C53.3084 20.3041 53.4725 20.309 53.627 20.309C53.9407 20.3041 54.24 20.2751 54.5249 20.2171C55.0945 20.101 55.611 19.898 56.0841 19.6223C56.5572 19.3467 56.9916 18.9986 57.373 18.5634C57.5661 18.3458 57.7399 18.104 57.8992 17.8284C57.9812 17.693 58.0537 17.5479 58.1212 17.3932C58.1985 17.2433 58.2612 17.0789 58.3095 16.8903Z" fill="#F9ED32"/>
<path id="Vector_44" d="M51.8553 10.4446C51.6622 10.464 51.4884 10.5027 51.3243 10.551C51.1601 10.5945 51.0057 10.6477 50.8608 10.7058C50.5664 10.8218 50.3009 10.962 50.0595 11.1168C49.5719 11.4311 49.1664 11.8082 48.8189 12.2386C48.4761 12.669 48.1961 13.1477 47.9982 13.6941C47.9017 13.9649 47.8244 14.2598 47.7762 14.5693C47.752 14.724 47.7327 14.8884 47.7279 15.0577C47.7231 15.2269 47.7182 15.4058 47.7424 15.5992C47.9355 15.5799 48.1092 15.5412 48.2734 15.4977C48.4375 15.4542 48.592 15.401 48.7368 15.343C49.0313 15.2269 49.2968 15.0867 49.5381 14.9319C50.0257 14.6176 50.4312 14.2405 50.7739 13.8101C51.1167 13.3798 51.3967 12.9011 51.5898 12.3546C51.6863 12.0839 51.7636 11.7889 51.8167 11.4794C51.8408 11.3247 51.8601 11.1603 51.8649 10.991C51.8794 10.8121 51.8794 10.6381 51.8553 10.4446Z" fill="#F9ED32"/>
<path id="Vector_45" d="M46.4102 6.58112C46.2219 6.62947 46.0578 6.69233 45.9033 6.76003C45.7488 6.82772 45.604 6.90509 45.4688 6.98246C45.1937 7.14203 44.9523 7.3161 44.7351 7.50469C44.2958 7.88669 43.9482 8.31704 43.6682 8.79092C43.3882 9.26479 43.1807 9.78219 43.0648 10.3479C43.0069 10.6332 42.9731 10.933 42.9683 11.2473C42.9683 11.4069 42.9731 11.5665 42.9876 11.7357C43.0069 11.905 43.031 12.079 43.0793 12.2676C43.2676 12.2193 43.4317 12.1564 43.591 12.0887C43.7455 12.021 43.8903 11.9485 44.0303 11.8663C44.3054 11.7067 44.5468 11.5326 44.764 11.344C45.2033 10.962 45.5509 10.5317 45.826 10.053C46.1012 9.5791 46.3088 9.06171 46.4246 8.49112C46.4826 8.20583 46.5164 7.90603 46.5212 7.59173C46.5212 7.43216 46.5164 7.27259 46.5019 7.10334C46.4826 6.94377 46.4584 6.7697 46.4102 6.58112Z" fill="#F9ED32"/>
<path id="Vector_46" d="M37.8512 3.31714C37.6919 3.43319 37.5664 3.55408 37.4457 3.67496C37.3299 3.79585 37.2237 3.92157 37.1271 4.04729C36.934 4.29874 36.7747 4.55018 36.6444 4.8113C36.3789 5.32869 36.2196 5.86059 36.1424 6.407C36.0603 6.95341 36.0651 7.50465 36.1665 8.08007C36.2196 8.36536 36.3017 8.65549 36.4127 8.95045C36.4706 9.09552 36.5382 9.24541 36.6154 9.39531C36.6975 9.54521 36.7844 9.69995 36.9003 9.85468C37.0596 9.73863 37.1851 9.61774 37.3058 9.49686C37.4216 9.37597 37.5326 9.25025 37.6292 9.12936C37.8223 8.87792 37.9816 8.62647 38.1168 8.36536C38.3823 7.84797 38.5367 7.31607 38.6188 6.76966C38.696 6.22325 38.696 5.66717 38.5898 5.09659C38.5367 4.8113 38.4547 4.52117 38.3436 4.22621C38.2857 4.08114 38.2181 3.93124 38.1409 3.78134C38.054 3.62661 37.9671 3.47187 37.8512 3.31714Z" fill="#F9ED32"/>
<path id="Vector_47" d="M61.7226 24.4674C61.5584 24.3611 61.3991 24.2837 61.2447 24.216C61.0902 24.1483 60.9357 24.0951 60.7861 24.0468C60.4868 23.9549 60.1923 23.8969 59.9027 23.863C59.3282 23.8002 58.7731 23.8388 58.2372 23.9549C57.7014 24.0709 57.18 24.2692 56.6876 24.5738C56.4415 24.7237 56.2001 24.9026 55.9635 25.1154C55.8477 25.2218 55.7318 25.3378 55.6208 25.4635C55.5098 25.5941 55.3987 25.7295 55.2925 25.8939C55.4567 26.0003 55.616 26.0777 55.7705 26.1454C55.9249 26.213 56.0794 26.2711 56.229 26.3146C56.5332 26.4065 56.8228 26.4645 57.1125 26.4983C57.6869 26.5612 58.2421 26.5225 58.7779 26.4016C59.3137 26.2807 59.8302 26.0825 60.3275 25.7827C60.5737 25.6328 60.815 25.4539 61.0516 25.2411C61.1674 25.1347 61.2833 25.0187 61.3943 24.893C61.5102 24.7672 61.6212 24.6319 61.7226 24.4674Z" fill="#F9ED32"/>
<path id="Vector_48" d="M62.4079 35.3618C62.3065 35.1974 62.1955 35.0571 62.0844 34.9266C61.9734 34.8009 61.8576 34.6848 61.7417 34.5736C61.51 34.3608 61.2686 34.1771 61.0224 34.0272C60.53 33.7226 60.0135 33.5195 59.4777 33.3889C58.9418 33.2632 58.3915 33.2197 57.8122 33.2729C57.5226 33.3019 57.2281 33.3599 56.924 33.4469C56.7744 33.4905 56.6199 33.5485 56.4606 33.6113C56.3061 33.679 56.1468 33.7516 55.9778 33.858C56.0792 34.0272 56.1903 34.1626 56.3013 34.2931C56.4123 34.4189 56.5282 34.5398 56.644 34.6461C56.8757 34.8589 57.1171 35.0426 57.3633 35.1925C57.8557 35.4972 58.3722 35.7003 58.908 35.826C59.4439 35.9469 59.9942 35.9952 60.5735 35.9372C60.8631 35.9082 61.1576 35.8502 61.4617 35.7631C61.6114 35.7196 61.7658 35.6616 61.9203 35.5987C62.0844 35.5407 62.2437 35.4682 62.4079 35.3618Z" fill="#F9ED32"/>
<path id="Vector_49" d="M59.7866 29.9944C59.6514 29.8542 59.5163 29.743 59.3811 29.6366C59.2459 29.5351 59.1108 29.4432 58.9756 29.3658C58.7053 29.2062 58.4301 29.0805 58.1598 28.979C57.6143 28.7807 57.0688 28.6937 56.5185 28.6792C55.9682 28.6695 55.4178 28.7372 54.8675 28.9161C54.5924 29.0032 54.3124 29.1192 54.0372 29.2739C53.8972 29.3513 53.7621 29.4335 53.6221 29.5351C53.4821 29.6318 53.3421 29.7381 53.2021 29.8784C53.3373 30.0186 53.4724 30.1347 53.6076 30.2362C53.7428 30.3377 53.8779 30.4296 54.0131 30.507C54.2834 30.6666 54.5586 30.7923 54.8289 30.8938C55.3744 31.0921 55.9199 31.1791 56.4702 31.1888C57.0205 31.1985 57.5708 31.1259 58.1212 30.947C58.3963 30.86 58.6763 30.7439 58.9515 30.5892C59.0915 30.5118 59.2266 30.4296 59.3666 30.3329C59.5114 30.2362 59.6514 30.1298 59.7866 29.9944Z" fill="#F9ED32"/>
<path id="Vector_50" d="M57.6386 38.2775C57.5517 38.1034 57.4551 37.9583 57.3538 37.8181C57.2524 37.6827 57.151 37.557 57.0448 37.4361C56.8324 37.204 56.6104 37.0009 56.3786 36.8268C55.9152 36.4787 55.418 36.2272 54.8966 36.058C54.3753 35.8839 53.8298 35.792 53.2505 35.7969C52.9609 35.8017 52.6616 35.8307 52.3526 35.8936C52.1982 35.9274 52.0388 35.9661 51.8795 36.0193C51.7154 36.0725 51.5513 36.1354 51.3775 36.2224C51.4644 36.3965 51.5609 36.5464 51.6575 36.6818C51.7589 36.8172 51.8602 36.9477 51.9664 37.0638C52.1788 37.2959 52.4009 37.499 52.6326 37.673C53.096 38.0212 53.5933 38.2678 54.1146 38.4419C54.636 38.6111 55.1815 38.7078 55.7656 38.6982C56.0552 38.6933 56.3545 38.6643 56.6635 38.6014C56.8179 38.5724 56.9772 38.5289 57.1365 38.4806C57.3007 38.4274 57.4648 38.3693 57.6386 38.2775Z" fill="#F9ED32"/>
<path id="Vector_51" d="M12.2855 33.8772C12.411 33.7273 12.5414 33.6112 12.6717 33.5C12.802 33.3936 12.9324 33.2921 13.0627 33.2051C13.3234 33.031 13.5889 32.8907 13.8592 32.7747C14.3951 32.5474 14.9357 32.4265 15.4812 32.3879C16.0267 32.3492 16.5819 32.3879 17.1418 32.5329C17.4218 32.6055 17.7066 32.707 17.9915 32.8424C18.1363 32.9101 18.2763 32.9875 18.4211 33.0793C18.5659 33.1712 18.7107 33.2679 18.8556 33.3985C18.73 33.5484 18.5997 33.6693 18.4694 33.7756C18.339 33.8869 18.2087 33.9836 18.0784 34.0706C17.8177 34.2447 17.5522 34.3897 17.2818 34.501C16.746 34.7282 16.2053 34.8443 15.6598 34.8878C15.1144 34.9265 14.5592 34.883 13.9992 34.7379C13.7192 34.6654 13.4344 34.5638 13.1496 34.4284C13.0048 34.3607 12.8648 34.2834 12.72 34.1963C12.58 34.1045 12.4352 34.0077 12.2855 33.8772Z" fill="#D4BE29"/>
<path id="Vector_52" d="M16.9584 36.5029C17.0695 36.3434 17.1853 36.2128 17.306 36.0871C17.4219 35.9662 17.5425 35.855 17.6681 35.7534C17.9094 35.5504 18.1604 35.386 18.4163 35.2457C18.9232 34.9653 19.4494 34.7912 19.99 34.6945C20.5307 34.5978 21.0858 34.5833 21.6603 34.6703C21.9451 34.7138 22.2396 34.7864 22.534 34.8927C22.6837 34.9459 22.8333 35.0088 22.9878 35.0813C23.1423 35.1587 23.2968 35.2409 23.4561 35.3569C23.345 35.5165 23.2292 35.6519 23.1133 35.7728C22.9975 35.8937 22.8768 36.0049 22.7561 36.1064C22.5147 36.3095 22.2637 36.4739 22.0078 36.6142C21.501 36.8946 20.9748 37.0687 20.4293 37.1606C19.8886 37.2524 19.3335 37.2718 18.759 37.1799C18.4742 37.1364 18.1798 37.0639 17.8853 36.9575C17.7356 36.9043 17.586 36.8414 17.4315 36.7689C17.2722 36.7012 17.1177 36.619 16.9584 36.5029Z" fill="#009444"/>
<path id="Vector_53" d="M4.54248 35.3618C4.64385 35.1974 4.75488 35.0571 4.86591 34.9266C4.97694 34.8009 5.0928 34.6848 5.20866 34.5736C5.44037 34.3608 5.68174 34.1771 5.92793 34.0272C6.42032 33.7226 6.93685 33.5195 7.47269 33.3889C8.00852 33.2632 8.55884 33.2197 9.13812 33.2729C9.42777 33.3019 9.72223 33.3599 10.0264 33.4469C10.176 33.4905 10.3305 33.5485 10.4898 33.6113C10.6443 33.679 10.8036 33.7516 10.9725 33.858C10.8711 34.0272 10.7601 34.1626 10.6491 34.2931C10.5381 34.4189 10.4222 34.5398 10.3063 34.6461C10.0746 34.8589 9.83326 35.0426 9.58707 35.1925C9.09468 35.4972 8.57815 35.7003 8.04231 35.826C7.50648 35.9469 6.95616 35.9952 6.37688 35.9372C6.08723 35.9082 5.79277 35.8502 5.48864 35.7631C5.33899 35.7196 5.18452 35.6616 5.03004 35.5987C4.86591 35.5407 4.70661 35.4682 4.54248 35.3618Z" fill="#F9ED32"/>
<path id="Vector_54" d="M9.31195 38.2775C9.39884 38.1034 9.49539 37.9583 9.59676 37.8181C9.69814 37.6827 9.79951 37.557 9.90572 37.4361C10.1181 37.204 10.3402 37.0009 10.5719 36.8268C11.0353 36.4787 11.5325 36.2272 12.0539 36.058C12.5752 35.8839 13.1207 35.792 13.7 35.7969C13.9897 35.8017 14.289 35.8307 14.5979 35.8936C14.7524 35.9274 14.9117 35.9661 15.071 36.0193C15.2351 36.0725 15.3992 36.1354 15.573 36.2224C15.4861 36.3965 15.3896 36.5464 15.293 36.6818C15.1917 36.8172 15.0903 36.9477 14.9841 37.0638C14.7717 37.2959 14.5496 37.499 14.3179 37.673C13.8545 38.0212 13.3573 38.2678 12.8359 38.4419C12.3146 38.6111 11.7691 38.7078 11.185 38.6982C10.8953 38.6933 10.596 38.6643 10.2871 38.6014C10.1326 38.5724 9.9733 38.5289 9.814 38.4806C9.64987 38.4274 9.48574 38.3693 9.31195 38.2775Z" fill="#F9ED32"/>
<path id="Vector_55" d="M15.7998 30.5891C15.9446 30.4586 16.0894 30.357 16.2343 30.2651C16.3791 30.1733 16.5191 30.0959 16.6639 30.0282C16.9487 29.888 17.2287 29.7864 17.5087 29.7091C18.0687 29.5592 18.6238 29.5108 19.1693 29.5447C19.7196 29.5785 20.2603 29.6946 20.7961 29.917C21.0665 30.0282 21.332 30.1684 21.5926 30.3377C21.723 30.4247 21.8581 30.5214 21.9885 30.6278C22.1188 30.739 22.2492 30.8551 22.3795 31.005C22.2347 31.1355 22.0899 31.2371 21.945 31.3289C21.8002 31.4208 21.6602 31.4982 21.5154 31.5659C21.2306 31.7061 20.9506 31.8077 20.6706 31.885C20.1106 32.0349 19.5555 32.0833 19.01 32.0446C18.4645 32.0059 17.919 31.8899 17.3832 31.6723C17.1128 31.561 16.8473 31.4208 16.5867 31.2516C16.4563 31.1645 16.3212 31.0678 16.1908 30.9614C16.0557 30.8551 15.9253 30.739 15.7998 30.5891Z" fill="#009444"/>
<path id="Vector_56" d="M22.9975 28.3551C23.1809 28.2923 23.3547 28.2584 23.5237 28.2343C23.6926 28.2101 23.8519 28.1907 24.0112 28.1859C24.325 28.1714 24.6243 28.1907 24.914 28.2294C25.4884 28.3116 26.0146 28.4905 26.5022 28.7372C26.9897 28.9886 27.4435 29.3077 27.849 29.7236C28.0517 29.9315 28.24 30.1636 28.4138 30.4296C28.5007 30.5601 28.5827 30.7004 28.66 30.8551C28.7372 31.0098 28.8096 31.1694 28.8676 31.3531C28.6793 31.416 28.5103 31.4499 28.3414 31.4789C28.1724 31.503 28.0131 31.5224 27.8538 31.5272C27.54 31.5417 27.2407 31.5272 26.9511 31.4837C26.3766 31.4015 25.8505 31.2226 25.3629 30.9711C24.8753 30.7197 24.4216 30.3957 24.0161 29.9799C23.8133 29.7719 23.6251 29.5398 23.4513 29.2739C23.3644 29.1433 23.2823 29.0031 23.2051 28.8484C23.1327 28.7033 23.0554 28.5437 22.9975 28.3551Z" fill="#1C442A"/>
<path id="Vector_57" d="M44.7157 33.0263C44.5564 32.915 44.4019 32.8328 44.2474 32.7603C44.0929 32.6878 43.9433 32.6297 43.7936 32.5766C43.4943 32.475 43.2047 32.4073 42.9151 32.3638C42.3406 32.2816 41.7855 32.3058 41.2448 32.4073C40.7041 32.5089 40.1828 32.6878 39.6759 32.9731C39.4249 33.1181 39.1787 33.2874 38.9373 33.4905C38.8166 33.592 38.7008 33.7032 38.5801 33.8289C38.4642 33.9547 38.3484 34.0852 38.2422 34.2496C38.4015 34.3608 38.556 34.443 38.7104 34.5156C38.8649 34.5881 39.0146 34.651 39.1642 34.6993C39.4635 34.8009 39.7531 34.8686 40.0428 34.9121C40.6172 34.9943 41.1724 34.9701 41.7131 34.8686C42.2537 34.767 42.7751 34.5833 43.2819 34.298C43.533 34.1529 43.7792 33.9837 44.0205 33.7806C44.1412 33.679 44.2619 33.5678 44.3778 33.4421C44.4936 33.3212 44.6046 33.1907 44.7157 33.0263Z" fill="#1C442A"/>
<path id="Vector_58" d="M43.7598 28.3745C43.5764 28.3116 43.4026 28.2778 43.2337 28.2536C43.0647 28.2294 42.9054 28.2101 42.7461 28.2053C42.4323 28.1907 42.133 28.2101 41.8434 28.2488C41.2689 28.331 40.7427 28.5099 40.2552 28.7565C39.7676 29.0079 39.3138 29.3271 38.9083 29.7429C38.7056 29.9509 38.5173 30.183 38.3435 30.4489C38.2566 30.5795 38.1746 30.7197 38.0973 30.8744C38.0201 31.0292 37.9477 31.1887 37.8898 31.3725C38.078 31.4353 38.247 31.4692 38.416 31.4982C38.5849 31.5224 38.7442 31.5417 38.9035 31.5466C39.2173 31.5611 39.5166 31.5466 39.8062 31.503C40.3807 31.4208 40.9069 31.2419 41.3944 30.9905C41.882 30.739 42.3358 30.4151 42.7413 29.9992C42.944 29.7913 43.1323 29.5592 43.3061 29.2932C43.393 29.1627 43.475 29.0224 43.5523 28.8677C43.6295 28.7178 43.7019 28.5582 43.7598 28.3745Z" fill="#1C442A"/>
<path id="Vector_59" d="M6.45874 29.6559C6.59391 29.5156 6.72907 29.4044 6.86424 29.298C6.9994 29.1965 7.13457 29.1046 7.26974 29.0273C7.54007 28.8677 7.81523 28.742 8.08556 28.6404C8.63105 28.4422 9.17654 28.3551 9.72686 28.3406C10.2772 28.3309 10.8275 28.3986 11.3778 28.5776C11.653 28.6646 11.933 28.7806 12.2081 28.9354C12.3481 29.0128 12.4833 29.095 12.6233 29.1965C12.7633 29.2932 12.9033 29.3996 13.0433 29.5398C12.9081 29.68 12.7729 29.7961 12.6378 29.8976C12.5026 29.9992 12.3674 30.0911 12.2323 30.1684C11.9619 30.328 11.6868 30.4537 11.4164 30.5553C10.8709 30.7535 10.3255 30.8406 9.77513 30.8502C9.22482 30.8599 8.6745 30.7874 8.12418 30.6085C7.84902 30.5214 7.56903 30.4054 7.29387 30.2506C7.15388 30.1733 7.01871 30.0911 6.87872 29.9943C6.73873 29.8976 6.59873 29.7913 6.45874 29.6559Z" fill="#F9ED32"/>
</g>
</g>
</g>
</svg>
